# xmcd
#
# Track frame offsets: 
#        150
#        4811
#        7755
#        10764
#        14330
#        18009
#        21256
#        23909
#        26457
#        28952
#        31467
#        35158
#        38481
#        41414
#        44896
#        47722
#        51326
#        54977
#        57936
#        60909
#        64552
#        67429
#        70371
#        72944
#        76573
#        79027
#        81888
#        84773
#        88013
#        90875
#        93301
#        96443
#        98654
#        101611
#        104560
#        107154
#        110342
#        113474
#        115840
#        119062
#        121272
#        123535
#        125740
#        128692
#        130892
#        133074
#        136387
#        138467
#        140461
#        142470
#
# Disc length: 1924 seconds
#
# Revision: 0
# Processed by: cddbd v1.5.2PL0 Copyright (c) Steve Scherf et al.
# Submitted via: ExactAudioCopyFreeDBPlugin 1.0
#
DISCID=b1078232
DTITLE=Dave Rubin - Power Trio Blues
DYEAR=1900
DGENRE=Guitar Lesson
TTITLE0=Tuning
TTITLE1=West Side Blues ex01
TTITLE2=West Side Blues ex02
TTITLE3=West Side Blues ex03
TTITLE4=West Side Blues ex04
TTITLE5=West Side Blues ex05
TTITLE6=West Side Blues ex06
TTITLE7=South Side Blues ex01
TTITLE8=South Side Blues ex02
TTITLE9=South Side Blues ex03
TTITLE10=South Side Blues ex04
TTITLE11=South Side Blues ex05
TTITLE12=South Side Blues ex06
TTITLE13=South Side Blues ex07
TTITLE14=South Side Blues ex08
TTITLE15=South Side Blues ex09
TTITLE16=South Side Blues ex10
TTITLE17=South Side Blues ex11
TTITLE18=South Side Blues ex12
TTITLE19=South Side Blues ex13
TTITLE20=South Side Blues ex14
TTITLE21=South Side Blues ex15
TTITLE22=South Side Blues ex16
TTITLE23=South Side Blues ex17
TTITLE24=Texas Blues ex01
TTITLE25=Texas Blues ex02
TTITLE26=Texas Blues ex03
TTITLE27=Texas Blues ex04
TTITLE28=Texas Blues ex05
TTITLE29=Texas Blues ex06
TTITLE30=Texas Blues ex07
TTITLE31=Texas Blues ex08
TTITLE32=Texas Blues ex09
TTITLE33=Texas Blues ex10
TTITLE34=Jazzy Blues ex01
TTITLE35=Jazzy Blues ex02
TTITLE36=Jazzy Blues ex03
TTITLE37=Jazzy Blues ex04
TTITLE38=Jazzy Blues ex05
TTITLE39=Jazzy Blues ex06
TTITLE40=Soul Blues ex01
TTITLE41=Soul Blues ex02
TTITLE42=Soul Blues ex03
TTITLE43=Soul Blues ex04
TTITLE44=Soul Blues ex05
TTITLE45=Soul Blues ex06
TTITLE46=Funk Blues ex01
TTITLE47=Funk Blues ex02
TTITLE48=Funk Blues ex03
TTITLE49=Funk Blues ex04
EXTD=
EXTT0=
EXTT1=
EXTT2=
EXTT3=
EXTT4=
EXTT5=
EXTT6=
EXTT7=
EXTT8=
EXTT9=
EXTT10=
EXTT11=
EXTT12=
EXTT13=
EXTT14=
EXTT15=
EXTT16=
EXTT17=
EXTT18=
EXTT19=
EXTT20=
EXTT21=
EXTT22=
EXTT23=
EXTT24=
EXTT25=
EXTT26=
EXTT27=
EXTT28=
EXTT29=
EXTT30=
EXTT31=
EXTT32=
EXTT33=
EXTT34=
EXTT35=
EXTT36=
EXTT37=
EXTT38=
EXTT39=
EXTT40=
EXTT41=
EXTT42=
EXTT43=
EXTT44=
EXTT45=
EXTT46=
EXTT47=
EXTT48=
EXTT49=
PLAYORDER=
